<svg xmlns="http://www.w3.org/2000/svg" xml:space="preserve" width="320" height="320" style="shape-rendering:geometricPrecision;text-rendering:geometricPrecision;image-rendering:optimizeQuality;fill-rule:evenodd;clip-rule:evenodd" viewBox="0 0 8466.66 8466.66"><path d="M496.57 8466.66h7473.94c139.33-93.64 268.81-135.18 154.64-435.34l-742.26-2002.79c-62.81-171.42-105.82-377.95-245.6-449.35-120.08-61.34-1122.53-22.26-1344.04-28.75 29.2-55.74 75.9-109.03 112.02-157.83l349.08-527.53c807.11-1378.56 1094.13-3033.72-217.62-4188.26-324.76-285.84-687.93-488.7-1138.62-598.17-125.94-30.59-411.2-51.12-493.08-78.64h-328.92c-104.17 32.15-363.22 42.3-506.55 79.18-460.63 118.52-801.82 300.93-1139.28 597.59-343.16 301.66-728.41 795.5-853.99 1462.93-216.32 1149.8 273.51 2168.59 862.97 3077.4l234.57 333.33c-221.79 6.5-1223.58-32.71-1344.15 28.63-139.59 71.01-182.94 278.11-245.56 449.38-60.74 166.16-122.11 328.96-183.02 494.95L341.96 8031.33c-112.14 294.26 7.1 337.12 154.61 435.33z" style="fill:#15295b"/><path d="M4079.75 1395.67c-758.22 85.06-1405.84 752.07-1310.22 1618.49 83.76 759.05 756.82 1401.59 1622.71 1307.8 752.84-81.54 1395.38-754.49 1305.33-1618.46-78.74-755.5-761.07-1403.95-1617.82-1307.83z" style="fill:#fefefe"/><path d="m3287.26 7227.01 3628.07-926.82c-23.2-103.42-53.86-219.37-135.17-219.37H5391.09c-102.14 0-102.36 34.83-158.71 93.81-189.17 198-772.77 750.08-998.84 750.17-232.2.1-804.94-550.13-990.58-741.87-58.94-60.88-61.73-102.11-166.97-102.11l-442.94 3 654.21 1143.19zm-2300.14 595.2 1764.55-450.31-734.05-1287.83c-408.73-3.7-377.4-36.1-423.86 90.38-14.35 39.07-26.88 72.87-39.87 108.63-26.33 72.48-53.63 145.61-80.37 217.44l-486.4 1321.69zm4985.54-733.38 478.14 846.47 1072.62 2.29-418.08-1135.42zm-3271.31 841.49c146.5 24.24 2982.82 10.98 3135.77 5.83l-402.45-703.74-2733.32 697.91z" style="fill:#00feaf"/></svg>