<svg xmlns="http://www.w3.org/2000/svg" width="320" height="320" viewBox="0 0 8466.66 8466.66" shape-rendering="geometricPrecision" text-rendering="geometricPrecision" image-rendering="optimizeQuality" fill-rule="evenodd" clip-rule="evenodd"><path d="M6085.53 689.77c616.56 542.68 889.66 1194.55 925.2 1878.58 41.17 792.49-241.93 1621.69-677.62 2365.86l-5.52 9.45-223.78 338.2c376.74-5.2 869.16-8.73 988.81 52.39 182.15 93.04 242.61 274.56 301.91 452.65 6.62 19.91 13.24 39.74 29.87 85.12l706.52 1906.37c156.1 410.19 5.17 506.68-188.53 630.52-8.42 5.38-16.84 10.76-35.2 23.1l-51.61 34.67H612.31l-50.94-33.89c-9.18-6.1-21.08-13.78-32.72-21.28-203.65-131.22-347.33-223.87-192.46-631.5l-.18-.07 532.87-1437.1.26.1c12.36-33.66 34.97-93.68 82.02-220.33 24.49-65.9 48.8-131.32 92.14-249.88 13.64-37.3 21.63-61.28 29.61-85.31 59.5-178.81 120.31-361.57 302.13-454.06 118.13-60.1 606.41-56.81 982.84-51.61l-2.61-4.17c-289.54-446.38-554.89-920.64-722.04-1426.77-170.89-517.48-239.69-1067.1-129.54-1652.62 58.16-309.12 169.23-581.21 305.72-815.02 169.06-289.63 377.56-521.86 572.76-693.44 172.13-151.32 346.55-274.21 538.26-375.21 189.42-99.8 394.84-176.88 631.02-237.64C3752.19 25.24 3989.09.08 4225.46-.01c240.61-.1 483.3 25.62 689.05 75.58 231.42 56.2 440.97 136.72 634.85 240.14 194.78 103.88 371.3 228.95 536.17 374.06zm523.33 1899.07c-30.1-579.38-263.16-1133.08-789.66-1596.49-144.63-127.28-295.95-235.13-458.96-322.06-163.9-87.42-342.2-155.77-540.29-203.88-175.71-42.68-385.16-64.64-594.49-64.55-204.72.08-406.94 21.1-574.72 64.27-202.79 52.18-379.48 118.52-542.78 204.55-161 84.83-309.99 190.24-459.46 321.63-167.3 147.06-345.98 346.06-490.8 594.16-115.93 198.59-209.92 427.86-258.45 685.79-95.99 510.25-34.45 994.03 116.94 1452.46 154.38 467.48 401.65 909.7 672.3 1327.57l.09-.07 438.75 623.47-374.37 10.97c-62.14 1.82-183.1.07-328.1-2.02-341.56-4.93-827.76-11.94-867.01 8.02-36.18 18.41-70.25 120.74-103.56 220.85-12.44 37.44-24.84 74.69-32.75 96.32-18.37 50.24-56.14 151.88-93.72 253.04-6.99 18.83-14.19 38.2-80.71 219.45v.79l-532.87 1437.1-.79 1.57c-35.06 92-15.84 117.84 18.35 141.45h7005.23c32.54-21.87 53.46-46.42 17.31-141.46l-708.18-1911.06c-5.13-13.99-19.04-55.78-33.01-97.73-33.42-100.37-67.5-202.68-103.34-220.98-37.66-19.24-525.26-12.24-867.46-7.33-144.82 2.07-265.56 3.8-327.55 1.99l-321.56-9.45 149-284.46c29.08-55.54 64.09-100.47 97.2-142.97 6.43-8.27 12.73-16.35 21.05-27.46l331.25-500.59c396.3-679.65 653.71-1428.54 617.12-2132.89z" fill="#fefefe" fill-rule="nonzero"/><path d="M672.47 8264.95h7122.82c132.79-89.24 256.19-128.83 147.38-414.88l-707.39-1908.71c-59.86-163.36-100.85-360.19-234.06-428.24-114.44-58.45-1069.8-21.21-1280.9-27.4 27.83-53.12 72.33-103.9 106.76-150.41l332.68-502.75c769.19-1313.8 1042.73-2891.2-207.4-3991.5-309.5-272.41-655.61-465.74-1085.13-570.07-377.73-91.75-893.91-95.26-1266.13.52-438.99 112.95-764.16 286.79-1085.76 569.51-327.04 287.49-694.19 758.13-813.87 1394.21-206.16 1095.78 260.66 2066.71 822.43 2932.82l223.55 317.67c-211.37 6.2-1166.1-31.17-1281.01 27.29-133.03 67.67-174.34 265.04-234.02 428.27-57.89 158.35-116.37 313.5-174.42 471.7l-532.87 1437.1c-106.88 280.43 6.76 321.28 147.34 414.87z" fill="#15295b"/><path d="M4087.32 1526.15c-722.6 81.06-1339.8 716.74-1248.67 1542.45 79.83 723.4 721.27 1335.75 1546.48 1246.37 717.47-77.71 1329.82-719.05 1244-1542.43-75.04-720.01-725.31-1338-1541.81-1246.39z" fill="#fefefe"/><path d="M3332.06 7083.54l3457.62-883.28c-22.11-98.56-51.32-209.06-128.81-209.06H5337.05c-97.34 0-97.55 33.19-151.25 89.4-180.28 188.7-736.47 714.84-951.92 714.93-221.29.09-767.12-524.29-944.04-707.02-56.17-58.02-58.83-97.31-159.13-97.31l-422.13 2.86 623.48 1089.48zm-2192.08 567.24l1681.65-429.16-699.57-1227.33c-389.52-3.52-359.67-34.4-403.94 86.14-13.68 37.23-25.62 69.45-38 103.53-25.09 69.07-51.11 138.76-76.59 207.22l-463.55 1259.6zm4751.32-698.93l455.68 806.71 1022.23 2.18-398.44-1082.08-1079.47 273.19zm-3117.63 801.96c139.62 23.1 2842.69 10.46 2988.46 5.56l-383.55-670.68-2604.91 665.12z" fill="#00feaf"/></svg>